HIERARCHY
ROOT Hips
{
	OFFSET 0.000000 0.000000 0.000000 
	CHANNELS 6 Xposition Yposition Zposition Yrotation Zrotation Xrotation 
	JOINT Lumbar
	{
		OFFSET 0.000000 0.000000 0.000000 
		CHANNELS 3 Zrotation Xrotation Yrotation
		JOINT Neck
		{
			OFFSET 0.000000 0.445665 0.000000 
			CHANNELS 3 Zrotation Xrotation Yrotation
			End Site
			{
				OFFSET 0.000000 0.227535 0.000000 
			}
		}
		JOINT RightShoulder
		{
			OFFSET 0.019635 0.377685 0.194865 
			CHANNELS 3 Zrotation Xrotation Yrotation
			JOINT RightElbow
			{
				OFFSET 0.000000 -0.243375 0.000000 
				CHANNELS 2 Zrotation Yrotation
				JOINT RightWrist
				{
					OFFSET 0.000000 -0.264825 0.000000 
					CHANNELS 2 Zrotation Xrotation
					End Site
					{
						OFFSET 0.006600 -0.176220 0.000990 
					}
				}
			}
		}
		JOINT LeftShoulder
		{
			OFFSET 0.019635 0.377685 -0.194865 
			CHANNELS 3 Zrotation Xrotation Yrotation
			JOINT LeftElbow
			{
				OFFSET 0.000000 -0.243375 0.000000 
				CHANNELS 2 Zrotation Yrotation
				JOINT LeftWrist
				{
					OFFSET 0.000000 -0.264825 0.000000 
					CHANNELS 2 Zrotation Xrotation
					End Site
					{
						OFFSET 0.006600 -0.176220 -0.000990 
					}
				}
			}
		}
	}
	JOINT RightHip
	{
		OFFSET 0.052140 -0.069960 0.075570 
		CHANNELS 3 Zrotation Xrotation Yrotation
		JOINT RightKnee
		{
			OFFSET 0.000000 -0.402270 0.000000 
			CHANNELS 1 Zrotation
			JOINT RightAnkle
			{
				OFFSET 0.000000 -0.404085 0.000000 
				CHANNELS 3 Zrotation Xrotation Yrotation
				End Site
				{
					OFFSET 0.204105 -0.089430 0.008415 
				}
			}
		}
	}
	JOINT LeftHip
	{
		OFFSET 0.052140 -0.069960 -0.075570 
		CHANNELS 3 Zrotation Xrotation Yrotation
		JOINT LeftKnee
		{
			OFFSET 0.000000 -0.402270 0.000000 
			CHANNELS 1 Zrotation
			JOINT LeftAnkle
			{
				OFFSET 0.000000 -0.404085 0.000000 
				CHANNELS 3 Zrotation Xrotation Yrotation
				End Site
				{
					OFFSET 0.204105 -0.089430 -0.008415 
				}
			}
		}
	}
}
MOTION
Frames: 32
Frame Time: 0.02
-0 0.95578 -0 178.99859 0 2.26565 7.32459 1.0693 -3.28792 -26.68605 4.55402 1.53377 -0.50131 -17.5912 -3.74061 106.99688 4.00978 22.23619 -21.28488 19.99096 4.31534 12.36347 8.85605 -76.22682 -4.67989 0.38128 5.90435 3.01972 21.02015 -22.71289 10.62713 -9.27462 -11.43055 2.91401 -2.72277 -10.85415 -19.27204 8.81723 8.43154 14.51569
0.00118 0.95576 0.00117 178.51201 0 2.27535 7.13469 0.91322 -3.33782 -26.59179 5.01134 1.9726 -0.21181 -17.76267 -3.82979 107.13837 3.38253 29.31876 -21.38477 19.88872 3.66512 12.62464 8.6894 -76.21814 -4.58074 0.32557 6.07798 3.03904 21.50504 -22.85806 10.56598 -9.23006 -11.46941 2.89154 -2.77536 -10.44762 -19.2264 8.81519 8.42741 14.56296
0.00236 0.95574 0.00234 178.02789 0 2.28509 6.94502 0.75793 -3.38763 -26.49768 5.46532 2.4078 0.07377 -17.93228 -3.91583 107.28136 2.7611 36.33848 -21.48396 19.78697 3.01999 12.88251 8.52403 -76.20998 -4.48242 0.2704 6.25134 3.05792 21.98712 -23.00298 10.50526 -9.18569 -11.50742 2.86986 -2.82801 -10.0426 -19.18162 8.81321 8.42328 14.60955
0.00355 0.95572 0.00352 177.55025 0 2.29497 6.7556 0.60374 -3.43806 -26.40454 5.91244 2.8333 0.35045 -18.09591 -3.99188 107.4256 2.15145 43.21488 -21.58108 19.68661 2.38649 13.13129 8.3617 -76.20401 -4.38664 0.21691 6.42447 3.07552 22.46169 -23.14786 10.44561 -9.14178 -11.54302 2.85055 -2.88077 -9.64007 -19.13921 8.81157 8.41906 14.65282
0.00471 0.95571 0.00467 177.03991 0 2.30397 6.56631 0.44308 -3.48578 -26.30792 6.39826 3.31077 0.67907 -18.29088 -4.12287 107.55611 1.47144 50.89769 -21.68908 19.57947 1.68858 13.43008 8.1827 -76.18668 -4.27762 0.15458 6.59783 3.10027 22.97481 -23.29241 10.38022 -9.09565 -11.59215 2.81799 -2.93219 -9.22491 -19.08352 8.80831 8.41523 14.7124
0.00592 0.95567 0.00587 176.59813 0 2.3149 6.37594 0.29668 -3.53878 -26.2176 6.80014 3.67746 0.89426 -18.41962 -4.13617 107.72031 0.94657 56.83515 -21.77397 19.48638 1.12952 13.62155 8.03951 -76.19325 -4.19657 0.11096 6.7712 3.10964 23.40671 -23.43785 10.32708 -9.05411 -11.61211 2.81397 -2.98688 -8.83649 -19.05644 8.80837 8.41067 14.73831
0.00724 0.9556 0.00714 176.34968 0 2.33102 6.18481 0.18299 -3.61232 -26.15068 6.98776 3.74122 0.81809 -18.36283 -3.82393 107.93994 0.83421 58.20573 -21.79071 19.43275 0.93474 13.52117 7.9917 -76.26993 -4.19459 0.12021 6.94406 3.0772 23.61088 -23.5874 10.30722 -9.02568 -11.5531 2.8875 -3.04838 -8.51657 -19.10639 8.81857 8.403 14.66072
0.00861 0.95551 0.00845 176.16937 0 2.34919 5.99158 0.0845 -3.69053 -26.0878 7.08861 3.69315 0.6234 -18.24144 -3.39254 108.19715 0.90157 57.76642 -21.78209 19.3921 0.88244 13.3114 7.98061 -76.37016 -4.22054 0.14828 7.11743 3.02905 23.73377 -23.73794 10.29986 -9.00175 -11.46422 2.9902 -3.11367 -8.22408 -19.18551 8.83187 8.39471 14.55081
0.00997 0.95543 0.00976 175.95505 0 2.36645 5.79805 -0.01638 -3.76241 -26.02049 7.21672 3.69379 0.46844 -18.14891 -3.01572 108.46651 0.87116 57.99563 -21.79151 19.34632 0.77845 13.14869 7.95494 -76.45696 -4.23248 0.16676 7.29085 2.98768 23.8965 -23.8868 10.28705 -8.97544 -11.38798 3.08046 -3.17876 -7.92237 -19.25281 8.84323 8.38752 14.46265
0.01128 0.95535 0.01102 175.75385 0 2.38337 5.61135 -0.13509 -3.85065 -25.96873 7.3921 3.70141 0.37268 -18.05091 -2.63753 108.62721 0.82549 58.8861 -21.78507 19.30153 0.62349 12.99751 7.92038 -76.55492 -4.24986 0.18902 7.46217 2.94798 24.04753 -24.0398 10.27303 -8.95058 -11.31597 3.16717 -3.2374 -7.60782 -19.31456 8.85718 8.37725 14.3454
0.0127 0.95525 0.01238 175.54122 0 2.40181 5.40804 -0.21456 -3.90766 -25.87977 7.45351 3.67033 0.12601 -17.95844 -2.23341 109.00465 0.95873 57.9547 -21.79103 19.25244 0.60339 12.79593 7.91308 -76.63565 -4.26271 0.20864 7.6391 2.9009 24.20292 -24.18571 10.26479 -8.92374 -11.22771 3.26832 -3.31042 -7.32552 -19.39413 8.86605 8.37281 14.28018
0.01436 0.95509 0.01399 175.28286 0 2.42126 5.17547 -0.17709 -3.86216 -25.73634 7.17883 3.53851 -0.51265 -17.81477 -1.79179 110.12803 0.60644 52.58152 -21.96621 19.23384 0.96441 12.48456 7.97186 -76.65889 -4.25455 0.20973 7.82261 2.83861 24.39455 -24.30214 10.26757 -8.89142 -11.10582 3.40116 -3.42166 -7.13427 -19.52103 8.86362 8.3884 14.37404
0.01614 0.95491 0.0157 175.0104 0 2.44274 4.92322 -0.10321 -3.78778 -25.54605 6.80092 3.37517 -1.29811 -17.6934 -1.32799 111.43756 0.57345 45.42377 -22.13336 19.20202 1.44795 12.12529 8.05676 -76.66431 -4.24114 0.20872 8.01378 2.76907 24.59135 -24.41411 10.27644 -8.85731 -10.96862 3.54767 -3.54729 -6.9731 -19.6636 8.85522 8.40915 14.51995
0.0179 0.95474 0.01737 174.74242 0 2.465 4.66948 -0.05375 -3.73666 -25.34502 6.49758 3.24065 -2.01374 -17.61684 -0.87016 112.56096 1.04498 38.96999 -22.2163 19.14634 1.84701 11.78683 8.1299 -76.68118 -4.23128 0.21309 8.20668 2.70212 24.78453 -24.53329 10.28328 -8.82256 -10.83488 3.68872 -3.66671 -6.79218 -19.79585 8.84742 8.42513 14.63719
0.0195 0.95455 0.01902 174.48397 0 2.47988 4.45989 0.03056 -3.64336 -25.2797 6.07237 3.04259 -2.74734 -17.30956 -0.42252 114.1202 -1.09972 32.84894 -22.65827 19.21697 2.37321 11.4505 8.20413 -76.68657 -4.21762 0.19963 8.37595 2.63808 24.98528 -24.62688 10.28597 -8.79174 -10.71176 3.82787 -3.78501 -6.63707 -19.94366 8.84912 8.4515 14.77463
0.02146 0.95439 0.02073 174.20269 0 2.5109 4.15347 0.04939 -3.63043 -24.92015 5.88021 2.96889 -3.47597 -17.48456 0.04629 114.80798 2.12765 25.70486 -22.36466 19.02151 2.66109 11.09737 8.28148 -76.70901 -4.21009 0.22231 8.59834 2.56589 25.16625 -24.77739 10.30041 -8.75524 -10.56718 3.9735 -3.90887 -6.43599 -20.0611 8.82899 8.45727 14.88256
0.02435 0.95432 0.02264 173.85199 0 2.58333 3.588 -0.1097 -3.85072 -23.76659 6.33281 3.26368 -4.15523 -19.02171 0.6003 113.09808 21.41961 15.5698 -19.9228 18.0958 2.26849 10.73065 8.36358 -76.80397 -4.22229 0.34699 8.94639 2.477 25.34508 -25.04557 10.32949 -8.67694 -10.33359 4.13626 -4.04561 -6.09303 -20.1017 8.75516 8.40646 14.89821
0.02759 0.95427 0.0246 173.48116 0 2.67239 2.92622 -0.33781 -4.15163 -22.32001 7.02666 3.68192 -4.81926 -21.03517 1.16863 110.48903 45.87173 4.58234 -16.76317 16.90544 1.63116 10.34512 8.44711 -76.91342 -4.24055 0.50747 9.35039 2.37896 25.49376 -25.37838 10.37265 -8.59735 -10.08511 4.30429 -4.18721 -5.70483 -20.10904 8.65868 8.3345 14.88209
0.0307 0.95421 0.0265 173.12453 0 2.75565 2.30483 -0.54268 -4.41343 -20.9994 7.62853 4.03298 -5.49525 -22.8098 1.70816 108.2627 67.08959 -5.6028 -14.01049 15.83151 1.09831 9.95515 8.52832 -77.00137 -4.25473 0.65066 9.74239 2.28319 25.622 -25.70873 10.42062 -8.53649 -9.86586 4.46823 -4.3259 -5.3412 -20.12434 8.56913 8.27117 14.87951
0.03373 0.95415 0.02857 172.74256 0 2.83174 1.69247 -0.71371 -4.68651 -19.69599 8.1595 4.43016 -6.17374 -24.68741 2.34099 106.17435 92.03147 -17.57827 -10.91708 14.76102 0.59223 9.61894 8.61814 -77.14864 -4.27379 0.79906 10.08136 2.19728 25.89635 -25.92693 10.42353 -8.40133 -9.55215 4.64041 -4.46818 -4.95852 -20.17035 8.4933 8.21198 14.88281
0.03697 0.95409 0.03029 172.41322 0 2.92645 1.0444 -0.9699 -4.9533 -18.30224 8.88761 4.76034 -6.81816 -26.45358 2.78467 103.55492 110.48974 -26.03497 -8.36239 13.63617 -0.02173 9.16607 8.68925 -77.17985 -4.28487 0.94393 10.53969 2.08607 25.85684 -26.39211 10.52098 -8.41769 -9.43069 4.79577 -4.6038 -4.60835 -20.14435 8.38394 8.13929 14.86529
0.04088 0.95397 0.03112 172.19535 0 3.07041 0.27272 -1.46273 -5.20248 -16.60708 10.17967 4.88175 -7.57497 -27.8783 2.6716 99.93066 109.32212 -24.28136 -7.4742 12.29302 -0.93898 8.40358 8.71564 -76.85391 -4.26674 1.08086 11.34931 1.93117 24.98104 -27.53853 10.89837 -8.87809 -9.85376 4.90963 -4.72073 -4.32473 -19.92796 8.18516 8.03273 14.80111
0.04496 0.95385 0.0316 172.03801 0 3.23201 -0.52219 -2.03529 -5.43876 -14.85435 11.64694 4.93056 -8.26241 -29.15822 2.36456 95.76135 101.52889 -18.9993 -7.15067 10.92885 -1.94419 7.52331 8.72221 -76.41681 -4.24154 1.21133 12.26955 1.74742 23.78838 -28.92676 11.36629 -9.48628 -10.46873 5.00532 -4.83029 -4.08159 -19.64077 7.95425 7.91374 14.71651
0.04885 0.95373 0.0322 171.879 0 3.38451 -1.27478 -2.55988 -5.66865 -13.20941 12.98396 5.00837 -8.8441 -30.4508 2.17766 91.67648 97.07752 -15.51285 -6.56867 9.66199 -2.8677 6.69175 8.7323 -76.05258 -4.22323 1.33743 13.11709 1.56024 22.72283 -30.19663 11.77805 -10.01024 -10.98977 5.10496 -4.94293 -3.84229 -19.38486 7.73925 7.80138 14.63862
0.05324 0.9536 0.03297 171.61199 0 3.54286 -2.16569 -3.13771 -5.95423 -11.20997 14.5461 5.10679 -9.99262 -31.987 1.89229 88.2313 91.43745 -11.25405 -5.97644 8.01681 -3.97831 5.879 8.76344 -75.59501 -4.18928 1.49433 14.06508 1.43952 21.71824 -31.51161 12.25349 -10.60632 -11.53994 5.22224 -5.05802 -3.50771 -19.12884 7.51654 7.68355 14.56939
0.05661 0.9535 0.03329 171.5823 0 3.69212 -2.77172 -3.62102 -6.11825 -9.93857 15.67397 5.14414 -9.95963 -32.97192 1.72051 83.35898 86.59786 -7.74504 -5.54018 7.1563 -4.71385 5.00043 8.74873 -75.30457 -4.18653 1.5867 14.82459 1.1775 20.5235 -32.78029 12.6179 -11.08714 -12.07357 5.29933 -5.16479 -3.38156 -18.86011 7.3043 7.57517 14.47906
0.0572 0.95348 0.03258 172.21158 0 3.81919 -2.59491 -3.83803 -5.96227 -10.69452 15.59334 5.02409 -6.55113 -32.49695 2.31838 74.49246 85.87227 -7.24385 -5.47923 8.48054 -4.41875 3.96271 8.58923 -75.50875 -4.26814 1.48856 15.07819 0.49983 18.78037 -33.9382 12.65071 -11.21483 -12.52886 5.26191 -5.26194 -3.82265 -18.54412 7.1136 7.48961 14.32371
0.05676 0.95349 0.0314 173.07341 0 3.93502 -2.12927 -3.95438 -5.68207 -12.18358 15.06341 4.84584 -1.98274 -31.46623 2.97574 64.25323 86.11057 -7.59981 -5.54658 10.59107 -3.73812 2.8662 8.38875 -75.88362 -4.38192 1.32826 15.13092 -0.31247 16.87519 -35.02666 12.56912 -11.22124 -12.95832 5.18615 -5.34847 -4.47136 -18.22341 6.93731 7.41518 14.15022
0.05675 0.95347 0.03037 173.8178 0 4.05121 -1.78802 -4.10685 -5.44956 -13.33976 14.7144 4.69773 1.97245 -30.66794 3.319 54.76266 85.68546 -7.51137 -5.5011 12.33835 -3.21391 1.79807 8.22187 -76.17661 -4.48336 1.20522 15.24711 -1.04229 15.11125 -36.09652 12.54171 -11.28226 -13.39026 5.13308 -5.43267 -5.02503 -17.92442 6.76477 7.33999 13.99283
0.05689 0.95351 0.02962 174.61733 0 4.18826 -1.47293 -4.30183 -5.25192 -14.50283 14.46475 4.53099 6.30351 -29.94378 4.80643 44.70355 85.94932 -7.53561 -5.69403 14.12214 -2.76757 0.71008 7.99025 -76.48462 -4.57531 1.04342 15.48176 -1.86487 13.05332 -37.38642 12.50823 -11.35036 -13.86782 5.05702 -5.54816 -5.58571 -17.54047 6.54838 7.24657 13.80135
0.05648 0.95343 0.02815 175.35215 0 4.27873 -1.0391 -4.38453 -4.9545 -15.81351 13.9056 4.39092 10.11364 -28.94279 4.0039 35.53742 85.13616 -7.57006 -5.42739 16.00132 -2.07217 -0.33805 7.88503 -76.80243 -4.69425 0.94831 15.4242 -2.52354 11.57029 -38.19861 12.45901 -11.37325 -14.24191 5.02015 -5.5944 -6.17716 -17.33307 6.42618 7.19349 13.67708
0.05467 0.95298 0.02492 175.88879 0 4.24493 -0.30807 -4.17087 -4.39303 -17.46449 12.54494 4.33093 12.31068 -27.24645 -3.80008 28.94158 80.7575 -7.47956 -3.7397 18.08635 -0.73201 -1.35732 8.12935 -77.11412 -4.88491 1.04723 14.57699 -2.71582 11.74288 -37.70632 12.39412 -11.2979 -14.33391 5.09979 -5.46577 -6.83261 -17.61684 6.56929 7.25304 13.74062
